<mxfile host="drawio-plugin" modified="2022-05-17T16:33:19.880Z" agent="5.0 (Windows NT 6.2; Win64; x64) AppleWebKit/537.36 (KHTML, like Gecko) Chrome/89.0.4389.114 Safari/537.36" etag="rGdWe3blqszdit0LEXES" version="14.7.4" type="embed"><diagram id="C5RBs43oDa-KdzZeNtuy" name="Page-1"><mxGraphModel dx="1620" dy="717" grid="1" gridSize="10" guides="1" tooltips="1" connect="1" arrows="1" fold="1" page="1" pageScale="1" pageWidth="827" pageHeight="1169" math="0" shadow="0"><root><mxCell id="WIyWlLk6GJQsqaUBKTNV-0"/><mxCell id="WIyWlLk6GJQsqaUBKTNV-1" parent="WIyWlLk6GJQsqaUBKTNV-0"/><mxCell id="XdBPwFmGJHNVnX8WNjxw-10" style="edgeStyle=orthogonalEdgeStyle;rounded=0;orthogonalLoop=1;jettySize=auto;html=1;" parent="WIyWlLk6GJQsqaUBKTNV-1" source="zkfFHV4jXpPFQw0GAbJ--0" target="XdBPwFmGJHNVnX8WNjxw-0" edge="1"><mxGeometry relative="1" as="geometry"/></mxCell><mxCell id="XdBPwFmGJHNVnX8WNjxw-15" style="edgeStyle=orthogonalEdgeStyle;rounded=0;orthogonalLoop=1;jettySize=auto;html=1;entryX=0.5;entryY=0;entryDx=0;entryDy=0;" parent="WIyWlLk6GJQsqaUBKTNV-1" source="zkfFHV4jXpPFQw0GAbJ--0" target="XdBPwFmGJHNVnX8WNjxw-11" edge="1"><mxGeometry relative="1" as="geometry"/></mxCell><mxCell id="zkfFHV4jXpPFQw0GAbJ--0" value="Main" style="swimlane;fontStyle=2;align=center;verticalAlign=top;childLayout=stackLayout;horizontal=1;startSize=26;horizontalStack=0;resizeParent=1;resizeLast=0;collapsible=1;marginBottom=0;rounded=0;shadow=0;strokeWidth=1;" parent="WIyWlLk6GJQsqaUBKTNV-1" vertex="1"><mxGeometry x="334" y="190" width="160" height="60" as="geometry"><mxRectangle x="230" y="140" width="160" height="26" as="alternateBounds"/></mxGeometry></mxCell><mxCell id="XdBPwFmGJHNVnX8WNjxw-47" style="edgeStyle=orthogonalEdgeStyle;rounded=0;orthogonalLoop=1;jettySize=auto;html=1;entryX=0.5;entryY=0;entryDx=0;entryDy=0;" parent="WIyWlLk6GJQsqaUBKTNV-1" source="XdBPwFmGJHNVnX8WNjxw-0" target="XdBPwFmGJHNVnX8WNjxw-43" edge="1"><mxGeometry relative="1" as="geometry"/></mxCell><mxCell id="XdBPwFmGJHNVnX8WNjxw-49" style="edgeStyle=orthogonalEdgeStyle;rounded=0;orthogonalLoop=1;jettySize=auto;html=1;entryX=0.5;entryY=0;entryDx=0;entryDy=0;" parent="WIyWlLk6GJQsqaUBKTNV-1" source="XdBPwFmGJHNVnX8WNjxw-0" target="XdBPwFmGJHNVnX8WNjxw-31" edge="1"><mxGeometry relative="1" as="geometry"/></mxCell><mxCell id="XdBPwFmGJHNVnX8WNjxw-50" style="edgeStyle=orthogonalEdgeStyle;rounded=0;orthogonalLoop=1;jettySize=auto;html=1;" parent="WIyWlLk6GJQsqaUBKTNV-1" source="XdBPwFmGJHNVnX8WNjxw-0" target="XdBPwFmGJHNVnX8WNjxw-27" edge="1"><mxGeometry relative="1" as="geometry"/></mxCell><mxCell id="XdBPwFmGJHNVnX8WNjxw-53" style="edgeStyle=orthogonalEdgeStyle;rounded=0;orthogonalLoop=1;jettySize=auto;html=1;entryX=0.5;entryY=0;entryDx=0;entryDy=0;" parent="WIyWlLk6GJQsqaUBKTNV-1" source="XdBPwFmGJHNVnX8WNjxw-0" target="XdBPwFmGJHNVnX8WNjxw-39" edge="1"><mxGeometry relative="1" as="geometry"/></mxCell><mxCell id="XdBPwFmGJHNVnX8WNjxw-0" value="Trader" style="swimlane;fontStyle=0;childLayout=stackLayout;horizontal=1;startSize=26;fillColor=none;horizontalStack=0;resizeParent=1;resizeParentMax=0;resizeLast=0;collapsible=1;marginBottom=0;" parent="WIyWlLk6GJQsqaUBKTNV-1" vertex="1"><mxGeometry x="344" y="360" width="140" height="104" as="geometry"/></mxCell><mxCell id="XdBPwFmGJHNVnX8WNjxw-1" value="spawnTrader()" style="text;strokeColor=none;fillColor=none;align=left;verticalAlign=top;spacingLeft=4;spacingRight=4;overflow=hidden;rotatable=0;points=[[0,0.5],[1,0.5]];portConstraint=eastwest;" parent="XdBPwFmGJHNVnX8WNjxw-0" vertex="1"><mxGeometry y="26" width="140" height="26" as="geometry"/></mxCell><mxCell id="XdBPwFmGJHNVnX8WNjxw-2" value="+ field: type" style="text;strokeColor=none;fillColor=none;align=left;verticalAlign=top;spacingLeft=4;spacingRight=4;overflow=hidden;rotatable=0;points=[[0,0.5],[1,0.5]];portConstraint=eastwest;" parent="XdBPwFmGJHNVnX8WNjxw-0" vertex="1"><mxGeometry y="52" width="140" height="26" as="geometry"/></mxCell><mxCell id="XdBPwFmGJHNVnX8WNjxw-3" value="+ field: type" style="text;strokeColor=none;fillColor=none;align=left;verticalAlign=top;spacingLeft=4;spacingRight=4;overflow=hidden;rotatable=0;points=[[0,0.5],[1,0.5]];portConstraint=eastwest;" parent="XdBPwFmGJHNVnX8WNjxw-0" vertex="1"><mxGeometry y="78" width="140" height="26" as="geometry"/></mxCell><mxCell id="XdBPwFmGJHNVnX8WNjxw-20" style="edgeStyle=orthogonalEdgeStyle;rounded=0;orthogonalLoop=1;jettySize=auto;html=1;entryX=0.5;entryY=0;entryDx=0;entryDy=0;" parent="WIyWlLk6GJQsqaUBKTNV-1" source="XdBPwFmGJHNVnX8WNjxw-11" target="XdBPwFmGJHNVnX8WNjxw-16" edge="1"><mxGeometry relative="1" as="geometry"/></mxCell><mxCell id="XdBPwFmGJHNVnX8WNjxw-26" style="edgeStyle=orthogonalEdgeStyle;rounded=0;orthogonalLoop=1;jettySize=auto;html=1;" parent="WIyWlLk6GJQsqaUBKTNV-1" source="XdBPwFmGJHNVnX8WNjxw-11" target="XdBPwFmGJHNVnX8WNjxw-21" edge="1"><mxGeometry relative="1" as="geometry"/></mxCell><mxCell id="XdBPwFmGJHNVnX8WNjxw-11" value="Teleporter" style="swimlane;fontStyle=0;childLayout=stackLayout;horizontal=1;startSize=26;fillColor=none;horizontalStack=0;resizeParent=1;resizeParentMax=0;resizeLast=0;collapsible=1;marginBottom=0;" parent="WIyWlLk6GJQsqaUBKTNV-1" vertex="1"><mxGeometry x="540" y="360" width="140" height="104" as="geometry"/></mxCell><mxCell id="XdBPwFmGJHNVnX8WNjxw-12" value="teleportPlayer();" style="text;strokeColor=none;fillColor=none;align=left;verticalAlign=top;spacingLeft=4;spacingRight=4;overflow=hidden;rotatable=0;points=[[0,0.5],[1,0.5]];portConstraint=eastwest;" parent="XdBPwFmGJHNVnX8WNjxw-11" vertex="1"><mxGeometry y="26" width="140" height="26" as="geometry"/></mxCell><mxCell id="XdBPwFmGJHNVnX8WNjxw-13" value="+ field: type" style="text;strokeColor=none;fillColor=none;align=left;verticalAlign=top;spacingLeft=4;spacingRight=4;overflow=hidden;rotatable=0;points=[[0,0.5],[1,0.5]];portConstraint=eastwest;" parent="XdBPwFmGJHNVnX8WNjxw-11" vertex="1"><mxGeometry y="52" width="140" height="26" as="geometry"/></mxCell><mxCell id="XdBPwFmGJHNVnX8WNjxw-14" value="+ field: type" style="text;strokeColor=none;fillColor=none;align=left;verticalAlign=top;spacingLeft=4;spacingRight=4;overflow=hidden;rotatable=0;points=[[0,0.5],[1,0.5]];portConstraint=eastwest;" parent="XdBPwFmGJHNVnX8WNjxw-11" vertex="1"><mxGeometry y="78" width="140" height="26" as="geometry"/></mxCell><mxCell id="XdBPwFmGJHNVnX8WNjxw-16" value="Spawnpoints" style="swimlane;fontStyle=0;childLayout=stackLayout;horizontal=1;startSize=26;fillColor=none;horizontalStack=0;resizeParent=1;resizeParentMax=0;resizeLast=0;collapsible=1;marginBottom=0;" parent="WIyWlLk6GJQsqaUBKTNV-1" vertex="1"><mxGeometry x="540" y="533" width="140" height="78" as="geometry"/></mxCell><mxCell id="XdBPwFmGJHNVnX8WNjxw-18" value="+ field: type" style="text;strokeColor=none;fillColor=none;align=left;verticalAlign=top;spacingLeft=4;spacingRight=4;overflow=hidden;rotatable=0;points=[[0,0.5],[1,0.5]];portConstraint=eastwest;" parent="XdBPwFmGJHNVnX8WNjxw-16" vertex="1"><mxGeometry y="26" width="140" height="26" as="geometry"/></mxCell><mxCell id="XdBPwFmGJHNVnX8WNjxw-19" value="+ field: type" style="text;strokeColor=none;fillColor=none;align=left;verticalAlign=top;spacingLeft=4;spacingRight=4;overflow=hidden;rotatable=0;points=[[0,0.5],[1,0.5]];portConstraint=eastwest;" parent="XdBPwFmGJHNVnX8WNjxw-16" vertex="1"><mxGeometry y="52" width="140" height="26" as="geometry"/></mxCell><mxCell id="XdBPwFmGJHNVnX8WNjxw-21" value="RandomTeams" style="swimlane;fontStyle=0;childLayout=stackLayout;horizontal=1;startSize=26;fillColor=none;horizontalStack=0;resizeParent=1;resizeParentMax=0;resizeLast=0;collapsible=1;marginBottom=0;" parent="WIyWlLk6GJQsqaUBKTNV-1" vertex="1"><mxGeometry x="750" y="360" width="140" height="104" as="geometry"/></mxCell><mxCell id="XdBPwFmGJHNVnX8WNjxw-22" value="+ field: type" style="text;strokeColor=none;fillColor=none;align=left;verticalAlign=top;spacingLeft=4;spacingRight=4;overflow=hidden;rotatable=0;points=[[0,0.5],[1,0.5]];portConstraint=eastwest;" parent="XdBPwFmGJHNVnX8WNjxw-21" vertex="1"><mxGeometry y="26" width="140" height="26" as="geometry"/></mxCell><mxCell id="XdBPwFmGJHNVnX8WNjxw-23" value="+ field: type" style="text;strokeColor=none;fillColor=none;align=left;verticalAlign=top;spacingLeft=4;spacingRight=4;overflow=hidden;rotatable=0;points=[[0,0.5],[1,0.5]];portConstraint=eastwest;" parent="XdBPwFmGJHNVnX8WNjxw-21" vertex="1"><mxGeometry y="52" width="140" height="26" as="geometry"/></mxCell><mxCell id="XdBPwFmGJHNVnX8WNjxw-24" value="+ field: type" style="text;strokeColor=none;fillColor=none;align=left;verticalAlign=top;spacingLeft=4;spacingRight=4;overflow=hidden;rotatable=0;points=[[0,0.5],[1,0.5]];portConstraint=eastwest;" parent="XdBPwFmGJHNVnX8WNjxw-21" vertex="1"><mxGeometry y="78" width="140" height="26" as="geometry"/></mxCell><mxCell id="XdBPwFmGJHNVnX8WNjxw-27" value="Armor" style="swimlane;fontStyle=0;childLayout=stackLayout;horizontal=1;startSize=26;fillColor=none;horizontalStack=0;resizeParent=1;resizeParentMax=0;resizeLast=0;collapsible=1;marginBottom=0;" parent="WIyWlLk6GJQsqaUBKTNV-1" vertex="1"><mxGeometry x="-50" y="585" width="140" height="104" as="geometry"/></mxCell><mxCell id="XdBPwFmGJHNVnX8WNjxw-28" value="+ field: type" style="text;strokeColor=none;fillColor=none;align=left;verticalAlign=top;spacingLeft=4;spacingRight=4;overflow=hidden;rotatable=0;points=[[0,0.5],[1,0.5]];portConstraint=eastwest;" parent="XdBPwFmGJHNVnX8WNjxw-27" vertex="1"><mxGeometry y="26" width="140" height="26" as="geometry"/></mxCell><mxCell id="XdBPwFmGJHNVnX8WNjxw-29" value="+ field: type" style="text;strokeColor=none;fillColor=none;align=left;verticalAlign=top;spacingLeft=4;spacingRight=4;overflow=hidden;rotatable=0;points=[[0,0.5],[1,0.5]];portConstraint=eastwest;" parent="XdBPwFmGJHNVnX8WNjxw-27" vertex="1"><mxGeometry y="52" width="140" height="26" as="geometry"/></mxCell><mxCell id="XdBPwFmGJHNVnX8WNjxw-30" value="+ field: type" style="text;strokeColor=none;fillColor=none;align=left;verticalAlign=top;spacingLeft=4;spacingRight=4;overflow=hidden;rotatable=0;points=[[0,0.5],[1,0.5]];portConstraint=eastwest;" parent="XdBPwFmGJHNVnX8WNjxw-27" vertex="1"><mxGeometry y="78" width="140" height="26" as="geometry"/></mxCell><mxCell id="XdBPwFmGJHNVnX8WNjxw-31" value="Swords" style="swimlane;fontStyle=0;childLayout=stackLayout;horizontal=1;startSize=26;fillColor=none;horizontalStack=0;resizeParent=1;resizeParentMax=0;resizeLast=0;collapsible=1;marginBottom=0;" parent="WIyWlLk6GJQsqaUBKTNV-1" vertex="1"><mxGeometry x="120" y="585" width="140" height="104" as="geometry"/></mxCell><mxCell id="XdBPwFmGJHNVnX8WNjxw-32" value="+ field: type" style="text;strokeColor=none;fillColor=none;align=left;verticalAlign=top;spacingLeft=4;spacingRight=4;overflow=hidden;rotatable=0;points=[[0,0.5],[1,0.5]];portConstraint=eastwest;" parent="XdBPwFmGJHNVnX8WNjxw-31" vertex="1"><mxGeometry y="26" width="140" height="26" as="geometry"/></mxCell><mxCell id="XdBPwFmGJHNVnX8WNjxw-33" value="+ field: type" style="text;strokeColor=none;fillColor=none;align=left;verticalAlign=top;spacingLeft=4;spacingRight=4;overflow=hidden;rotatable=0;points=[[0,0.5],[1,0.5]];portConstraint=eastwest;" parent="XdBPwFmGJHNVnX8WNjxw-31" vertex="1"><mxGeometry y="52" width="140" height="26" as="geometry"/></mxCell><mxCell id="XdBPwFmGJHNVnX8WNjxw-34" value="+ field: type" style="text;strokeColor=none;fillColor=none;align=left;verticalAlign=top;spacingLeft=4;spacingRight=4;overflow=hidden;rotatable=0;points=[[0,0.5],[1,0.5]];portConstraint=eastwest;" parent="XdBPwFmGJHNVnX8WNjxw-31" vertex="1"><mxGeometry y="78" width="140" height="26" as="geometry"/></mxCell><mxCell id="XdBPwFmGJHNVnX8WNjxw-39" value="Tools" style="swimlane;fontStyle=0;childLayout=stackLayout;horizontal=1;startSize=26;fillColor=none;horizontalStack=0;resizeParent=1;resizeParentMax=0;resizeLast=0;collapsible=1;marginBottom=0;" parent="WIyWlLk6GJQsqaUBKTNV-1" vertex="1"><mxGeometry x="320" y="585" width="140" height="104" as="geometry"/></mxCell><mxCell id="XdBPwFmGJHNVnX8WNjxw-40" value="+ field: type" style="text;strokeColor=none;fillColor=none;align=left;verticalAlign=top;spacingLeft=4;spacingRight=4;overflow=hidden;rotatable=0;points=[[0,0.5],[1,0.5]];portConstraint=eastwest;" parent="XdBPwFmGJHNVnX8WNjxw-39" vertex="1"><mxGeometry y="26" width="140" height="26" as="geometry"/></mxCell><mxCell id="XdBPwFmGJHNVnX8WNjxw-41" value="+ field: type" style="text;strokeColor=none;fillColor=none;align=left;verticalAlign=top;spacingLeft=4;spacingRight=4;overflow=hidden;rotatable=0;points=[[0,0.5],[1,0.5]];portConstraint=eastwest;" parent="XdBPwFmGJHNVnX8WNjxw-39" vertex="1"><mxGeometry y="52" width="140" height="26" as="geometry"/></mxCell><mxCell id="XdBPwFmGJHNVnX8WNjxw-42" value="+ field: type" style="text;strokeColor=none;fillColor=none;align=left;verticalAlign=top;spacingLeft=4;spacingRight=4;overflow=hidden;rotatable=0;points=[[0,0.5],[1,0.5]];portConstraint=eastwest;" parent="XdBPwFmGJHNVnX8WNjxw-39" vertex="1"><mxGeometry y="78" width="140" height="26" as="geometry"/></mxCell><mxCell id="XdBPwFmGJHNVnX8WNjxw-43" value="Specials" style="swimlane;fontStyle=0;childLayout=stackLayout;horizontal=1;startSize=30;fillColor=none;horizontalStack=0;resizeParent=1;resizeParentMax=0;resizeLast=0;collapsible=1;marginBottom=0;" parent="WIyWlLk6GJQsqaUBKTNV-1" vertex="1"><mxGeometry x="-240" y="585" width="180" height="108" as="geometry"/></mxCell><mxCell id="XdBPwFmGJHNVnX8WNjxw-44" value="+ doWaterBucket     ItemStack" style="text;strokeColor=none;fillColor=none;align=left;verticalAlign=top;spacingLeft=4;spacingRight=4;overflow=hidden;rotatable=0;points=[[0,0.5],[1,0.5]];portConstraint=eastwest;" parent="XdBPwFmGJHNVnX8WNjxw-43" vertex="1"><mxGeometry y="30" width="180" height="26" as="geometry"/></mxCell><mxCell id="XdBPwFmGJHNVnX8WNjxw-45" value="+ field: type" style="text;strokeColor=none;fillColor=none;align=left;verticalAlign=top;spacingLeft=4;spacingRight=4;overflow=hidden;rotatable=0;points=[[0,0.5],[1,0.5]];portConstraint=eastwest;" parent="XdBPwFmGJHNVnX8WNjxw-43" vertex="1"><mxGeometry y="56" width="180" height="26" as="geometry"/></mxCell><mxCell id="XdBPwFmGJHNVnX8WNjxw-46" value="+ field: type" style="text;strokeColor=none;fillColor=none;align=left;verticalAlign=top;spacingLeft=4;spacingRight=4;overflow=hidden;rotatable=0;points=[[0,0.5],[1,0.5]];portConstraint=eastwest;" parent="XdBPwFmGJHNVnX8WNjxw-43" vertex="1"><mxGeometry y="82" width="180" height="26" as="geometry"/></mxCell></root></mxGraphModel></diagram></mxfile>